<svg width="18" height="18" viewBox="0 0 18 18" fill="none" xmlns="http://www.w3.org/2000/svg">
  <path
    d="M9.00321 5.2493C8.26153 5.2493 7.53651 5.46924 6.91982 5.88129C6.30314 6.29335 5.82249 6.87902 5.53866 7.56424C5.25483 8.24946 5.18057 9.00346 5.32527 9.73089C5.46996 10.4583 5.82711 11.1265 6.35156 11.651C6.87601 12.1754 7.54419 12.5326 8.27162 12.6772C8.99905 12.8219 9.75305 12.7477 10.4383 12.4639C11.1235 12.18 11.7092 11.6994 12.1212 11.0827C12.5333 10.466 12.7532 9.74098 12.7532 8.9993C12.7522 8.00506 12.3568 7.05183 11.6537 6.3488C10.9507 5.64576 9.99745 5.25034 9.00321 5.2493ZM9.00321 11.4993C8.50876 11.4993 8.02541 11.3527 7.61428 11.078C7.20316 10.8033 6.88273 10.4128 6.69351 9.95601C6.50429 9.4992 6.45478 8.99653 6.55125 8.51158C6.64771 8.02663 6.88581 7.58117 7.23544 7.23154C7.58507 6.88191 8.03053 6.6438 8.51548 6.54734C9.00044 6.45088 9.5031 6.50039 9.95992 6.6896C10.4167 6.87882 10.8072 7.19926 11.0819 7.61038C11.3566 8.0215 11.5032 8.50485 11.5032 8.9993C11.5032 9.66235 11.2398 10.2982 10.771 10.7671C10.3021 11.2359 9.66625 11.4993 9.00321 11.4993ZM15.8782 9.16805C15.8813 9.05555 15.8813 8.94305 15.8782 8.83055L17.0438 7.3743C17.105 7.29784 17.1473 7.2081 17.1673 7.11229C17.1874 7.01649 17.1847 6.91731 17.1595 6.82274C16.9684 6.10446 16.6825 5.41481 16.3095 4.77196C16.2606 4.68783 16.1928 4.61627 16.1114 4.56297C16.03 4.50967 15.9373 4.47609 15.8407 4.46493L13.9876 4.25868C13.9105 4.17743 13.8324 4.0993 13.7532 4.0243L13.5345 2.16649C13.5232 2.06978 13.4895 1.97704 13.4361 1.89566C13.3826 1.81427 13.3109 1.7465 13.2266 1.69774C12.5836 1.32536 11.894 1.0398 11.1759 0.848522C11.0812 0.823363 10.982 0.82079 10.8862 0.84101C10.7904 0.861229 10.7007 0.903676 10.6243 0.964928L9.17196 2.1243C9.05946 2.1243 8.94696 2.1243 8.83446 2.1243L7.37821 0.961022C7.30175 0.899904 7.212 0.857598 7.1162 0.837515C7.0204 0.817432 6.92122 0.820131 6.82665 0.845397C6.10848 1.03682 5.41888 1.32265 4.77587 1.6954C4.69174 1.74425 4.62018 1.81206 4.56687 1.89344C4.51357 1.97481 4.48 2.06751 4.46883 2.16415L4.26258 4.0204C4.18133 4.098 4.10321 4.17613 4.02821 4.25477L2.1704 4.46805C2.07369 4.47931 1.98094 4.51299 1.89956 4.56644C1.81818 4.61988 1.75041 4.69159 1.70165 4.77587C1.32926 5.41896 1.04371 6.10855 0.852428 6.82665C0.82727 6.92128 0.824696 7.02049 0.844916 7.1163C0.865136 7.2121 0.907582 7.30182 0.968834 7.37821L2.12821 8.83055C2.12821 8.94305 2.12821 9.05555 2.12821 9.16805L0.964928 10.6243C0.90381 10.7008 0.861505 10.7905 0.841421 10.8863C0.821338 10.9821 0.824038 11.0813 0.849303 11.1759C1.04039 11.8941 1.32623 12.5838 1.6993 13.2266C1.74815 13.3108 1.81596 13.3823 1.89734 13.4356C1.97872 13.4889 2.07142 13.5225 2.16805 13.5337L4.02118 13.7399C4.09878 13.8212 4.17691 13.8993 4.25555 13.9743L4.47196 15.8321C4.48321 15.9288 4.5169 16.0216 4.57034 16.103C4.62378 16.1843 4.6955 16.2521 4.77977 16.3009C5.42287 16.6733 6.11246 16.9588 6.83055 17.1501C6.92518 17.1752 7.0244 17.1778 7.1202 17.1576C7.21601 17.1374 7.30572 17.0949 7.38212 17.0337L8.83446 15.8743C8.94696 15.8774 9.05946 15.8774 9.17196 15.8743L10.6282 17.0399C10.7047 17.101 10.7944 17.1434 10.8902 17.1634C10.986 17.1835 11.0852 17.1808 11.1798 17.1556C11.8981 16.9645 12.5877 16.6786 13.2306 16.3056C13.3147 16.2567 13.3862 16.1889 13.4395 16.1075C13.4928 16.0261 13.5264 15.9334 13.5376 15.8368L13.7438 13.9837C13.8251 13.9066 13.9032 13.8285 13.9782 13.7493L15.836 13.5306C15.9327 13.5193 16.0255 13.4856 16.1069 13.4322C16.1882 13.3787 16.256 13.307 16.3048 13.2227C16.6772 12.5796 16.9627 11.8901 17.154 11.172C17.1792 11.0773 17.1817 10.9781 17.1615 10.8823C17.1413 10.7865 17.0988 10.6968 17.0376 10.6204L15.8782 9.16805ZM14.6204 8.66024C14.6337 8.88609 14.6337 9.11252 14.6204 9.33837C14.6111 9.49299 14.6595 9.64556 14.7563 9.76649L15.8649 11.1516C15.7377 11.5559 15.5748 11.9481 15.3782 12.3235L13.6126 12.5235C13.4588 12.5406 13.3169 12.6141 13.2141 12.7298C13.0638 12.8989 12.9036 13.0591 12.7345 13.2095C12.6188 13.3122 12.5453 13.4541 12.5282 13.6079L12.3321 15.372C11.9567 15.5687 11.5645 15.7316 11.1602 15.8587L9.7743 14.7501C9.6634 14.6615 9.52563 14.6133 9.38368 14.6134H9.34618C9.12033 14.6266 8.8939 14.6266 8.66805 14.6134C8.51343 14.6041 8.36086 14.6525 8.23993 14.7493L6.85087 15.8587C6.4466 15.7315 6.05443 15.5686 5.67899 15.372L5.47899 13.6087C5.46192 13.4549 5.38843 13.313 5.27274 13.2102C5.10361 13.0599 4.94344 12.8997 4.79305 12.7306C4.69035 12.6149 4.54838 12.5414 4.39462 12.5243L2.63055 12.3274C2.43383 11.952 2.27094 11.5599 2.14383 11.1556L3.25243 9.76962C3.34923 9.64869 3.39767 9.49611 3.38837 9.34149C3.37509 9.11565 3.37509 8.88921 3.38837 8.66337C3.39767 8.50874 3.34923 8.35617 3.25243 8.23524L2.14383 6.84696C2.27104 6.44269 2.43392 6.05052 2.63055 5.67508L4.39383 5.47508C4.5476 5.45802 4.68956 5.38453 4.79227 5.26884C4.94266 5.0997 5.10283 4.93953 5.27196 4.78915C5.38811 4.68637 5.4619 4.54408 5.47899 4.38993L5.67509 2.62665C6.05048 2.42992 6.44265 2.26704 6.84696 2.13993L8.2329 3.24852C8.35383 3.34532 8.5064 3.39377 8.66102 3.38446C8.88687 3.37118 9.1133 3.37118 9.33915 3.38446C9.49377 3.39377 9.64634 3.34532 9.76727 3.24852L11.1556 2.13993C11.5598 2.26714 11.952 2.43002 12.3274 2.62665L12.5274 4.38993C12.5445 4.54369 12.618 4.68566 12.7337 4.78837C12.9028 4.93875 13.063 5.09892 13.2134 5.26805C13.3161 5.38375 13.458 5.45724 13.6118 5.4743L15.3759 5.6704C15.5726 6.04579 15.7355 6.43797 15.8626 6.84227L14.754 8.22821C14.6563 8.35016 14.6078 8.5043 14.6181 8.66024H14.6204Z"
    fill="#5D5D5D" />
</svg>
  