<svg width="20" height="19" viewBox="0 0 20 19" fill="none" xmlns="http://www.w3.org/2000/svg">
  <path
    d="M19.6686 5.94833L10.2936 0.948334C10.2031 0.900183 10.1023 0.875 9.9998 0.875C9.89736 0.875 9.79648 0.900183 9.70605 0.948334L0.331055 5.94833C0.231058 6.00163 0.14743 6.0811 0.0891172 6.17825C0.0308042 6.27541 0 6.38659 0 6.4999C0 6.61321 0.0308042 6.72439 0.0891172 6.82154C0.14743 6.91869 0.231058 6.99817 0.331055 7.05146L2.4998 8.20849V11.9913C2.49916 12.2983 2.61214 12.5947 2.81699 12.8233C3.84043 13.9632 6.1334 15.8749 9.9998 15.8749C11.2818 15.8855 12.5542 15.6533 13.7498 15.1905V17.7499C13.7498 17.9157 13.8157 18.0746 13.9329 18.1918C14.0501 18.309 14.209 18.3749 14.3748 18.3749C14.5406 18.3749 14.6995 18.309 14.8167 18.1918C14.934 18.0746 14.9998 17.9157 14.9998 17.7499V14.5866C15.8148 14.1161 16.5513 13.5212 17.1826 12.8233C17.3875 12.5947 17.5005 12.2983 17.4998 11.9913V8.20849L19.6686 7.05146C19.7686 6.99817 19.8522 6.91869 19.9105 6.82154C19.9688 6.72439 19.9996 6.61321 19.9996 6.4999C19.9996 6.38659 19.9688 6.27541 19.9105 6.17825C19.8522 6.0811 19.7686 6.00163 19.6686 5.94833ZM9.9998 14.6249C6.61934 14.6249 4.63105 12.9733 3.7498 11.9913V8.8749L9.70605 12.0515C9.79648 12.0996 9.89736 12.1248 9.9998 12.1248C10.1023 12.1248 10.2031 12.0996 10.2936 12.0515L13.7498 10.2085V13.8288C12.7654 14.2882 11.5248 14.6249 9.9998 14.6249ZM16.2498 11.9882C15.8752 12.4039 15.456 12.7772 14.9998 13.1015V9.5413L16.2498 8.8749V11.9882ZM14.6873 8.29208L14.6701 8.28193L10.2951 5.94833C10.1491 5.87378 9.97974 5.85954 9.82338 5.9087C9.66702 5.95786 9.53623 6.06647 9.45918 6.21114C9.38213 6.35581 9.365 6.52495 9.41147 6.68213C9.45794 6.83931 9.56429 6.97194 9.70762 7.05146L13.3592 8.9999L9.9998 10.7913L1.95293 6.4999L9.9998 2.20849L18.0467 6.4999L14.6873 8.29208Z"
    fill="#5D5D5D" />
</svg>
  