<svg width="20" height="14" viewBox="0 0 20 14" fill="none" xmlns="http://www.w3.org/2000/svg">
  <path
    d="M9.1627 9.3394C10.0004 8.78174 10.6363 7.96931 10.9765 7.02225C11.3167 6.0752 11.3431 5.0438 11.0518 4.08057C10.7605 3.11735 10.167 2.27344 9.35897 1.67364C8.55095 1.07384 7.57135 0.75 6.56504 0.75C5.55873 0.75 4.57914 1.07384 3.77111 1.67364C2.96309 2.27344 2.36954 3.11735 2.07824 4.08057C1.78693 5.0438 1.81334 6.0752 2.15356 7.02225C2.49377 7.96931 3.12973 8.78174 3.96738 9.3394C2.45214 9.89787 1.15809 10.9313 0.278322 12.2855C0.232085 12.3542 0.199968 12.4314 0.183839 12.5127C0.16771 12.5939 0.167891 12.6776 0.18437 12.7587C0.20085 12.8399 0.2333 12.917 0.279834 12.9855C0.326368 13.054 0.386058 13.1126 0.455434 13.1579C0.52481 13.2031 0.602488 13.2341 0.683954 13.2491C0.765419 13.2641 0.849047 13.2627 0.929976 13.2451C1.0109 13.2274 1.08752 13.1939 1.15537 13.1464C1.22322 13.0988 1.28094 13.0383 1.3252 12.9683C1.89269 12.0955 2.66923 11.3782 3.58429 10.8817C4.49935 10.3852 5.52395 10.1251 6.56504 10.1251C7.60613 10.1251 8.63073 10.3852 9.54579 10.8817C10.4609 11.3782 11.2374 12.0955 11.8049 12.9683C11.8966 13.1046 12.0382 13.1992 12.1991 13.2319C12.36 13.2646 12.5273 13.2326 12.6649 13.1429C12.8024 13.0532 12.8991 12.913 12.9341 12.7525C12.9691 12.5921 12.9395 12.4243 12.8518 12.2855C11.972 10.9313 10.6779 9.89787 9.1627 9.3394ZM3.12754 5.4394C3.12754 4.75953 3.32915 4.09492 3.70686 3.52963C4.08458 2.96433 4.62145 2.52374 5.24957 2.26357C5.87769 2.00339 6.56885 1.93532 7.23566 2.06795C7.90247 2.20059 8.51498 2.52798 8.99572 3.00872C9.47646 3.48946 9.80385 4.10197 9.93649 4.76878C10.0691 5.43559 10.0011 6.12676 9.74088 6.75488C9.4807 7.383 9.04011 7.91986 8.47481 8.29758C7.90952 8.67529 7.24491 8.8769 6.56504 8.8769C5.65368 8.87587 4.77994 8.51337 4.1355 7.86894C3.49107 7.22451 3.12858 6.35077 3.12754 5.4394ZM19.5447 13.1503C19.4059 13.2409 19.2368 13.2725 19.0746 13.2384C18.9124 13.2043 18.7704 13.1071 18.6799 12.9683C18.1131 12.095 17.3366 11.3774 16.4214 10.8811C15.5061 10.3848 14.4812 10.1255 13.44 10.1269C13.2743 10.1269 13.1153 10.0611 12.9981 9.94384C12.8809 9.82663 12.815 9.66766 12.815 9.5019C12.815 9.33614 12.8809 9.17717 12.9981 9.05996C13.1153 8.94275 13.2743 8.8769 13.44 8.8769C13.9463 8.87642 14.4461 8.76414 14.9039 8.54808C15.3617 8.33202 15.7662 8.01752 16.0883 7.62704C16.4105 7.23656 16.6424 6.77974 16.7676 6.28923C16.8927 5.79871 16.908 5.28661 16.8123 4.78952C16.7166 4.29242 16.5123 3.8226 16.214 3.41362C15.9156 3.00464 15.5307 2.6666 15.0865 2.42365C14.6424 2.1807 14.1501 2.03884 13.6448 2.0082C13.1395 1.97757 12.6337 2.05892 12.1635 2.24643C12.0868 2.27958 12.0043 2.29702 11.9208 2.29772C11.8372 2.29843 11.7544 2.28238 11.6772 2.25054C11.6 2.2187 11.5299 2.1717 11.4712 2.11233C11.4124 2.05296 11.3662 1.98241 11.3352 1.90486C11.3042 1.82731 11.289 1.74433 11.2906 1.66082C11.2922 1.57731 11.3105 1.49497 11.3445 1.41866C11.3784 1.34235 11.4273 1.27362 11.4883 1.21653C11.5493 1.15944 11.621 1.11515 11.6994 1.08628C12.7756 0.657098 13.9725 0.641654 15.0594 1.04292C16.1462 1.44419 17.046 2.23374 17.585 3.25926C18.1241 4.28477 18.2643 5.47359 17.9786 6.59637C17.6928 7.71915 17.0014 8.69633 16.0377 9.3394C17.5529 9.89787 18.847 10.9313 19.7268 12.2855C19.8173 12.4243 19.849 12.5934 19.8148 12.7556C19.7807 12.9178 19.6835 13.0598 19.5447 13.1503Z"
    fill="#5D5D5D" />
</svg>
  