<svg width="91" height="38" viewBox="0 0 91 38" fill="none" xmlns="http://www.w3.org/2000/svg">
  <path
    d="M25.7408 0H20.2027L26.1752 17.8902V26.7818H32.1477V17.8902L38.0117 0H32.4735L29.1072 11.8911L25.7408 0Z"
    fill="#FF0000" />
  <path
    d="M41.4866 26.7818V0H53.2144V3.72221H47.5898V9.89564H53.0816V13.7631H47.5898V22.7327H53.2144V26.7818H41.4866Z"
    fill="#FF0000" />
  <path
    d="M56.6894 5.16506C56.6894 3.53033 57.3352 2.2608 58.6269 1.35648C59.933 0.45216 61.7557 0 64.0951 0C66.4489 0 68.2644 0.457957 69.5418 1.37387C70.8191 2.27819 71.4578 3.5767 71.4578 5.2694V8.81781H65.15V4.9042C65.15 4.44044 65.0711 4.12161 64.9132 3.9477C64.7553 3.7622 64.4826 3.66945 64.0951 3.66945C63.6932 3.66945 63.4062 3.768 63.234 3.9651C63.0761 4.1506 62.9972 4.46363 62.9972 4.9042V7.18239C62.9972 7.56498 63.0546 7.90121 63.1694 8.19105C63.2986 8.4693 63.4995 8.74176 63.7722 9.00842L69.8647 14.4169C70.4388 14.9155 70.8478 15.443 71.0918 15.9995C71.3358 16.556 71.4578 17.4429 71.4578 18.6603V21.6515C71.4578 23.2978 70.812 24.5674 69.5202 25.4601C68.2429 26.3412 66.4202 26.7818 64.052 26.7818C61.6265 26.7818 59.7894 26.318 58.5408 25.3905C57.3065 24.463 56.6894 23.0949 56.6894 21.2863V17.9862H62.9972V21.6515C62.9972 22.0921 63.0761 22.4109 63.234 22.608C63.4062 22.8051 63.6932 22.9036 64.0951 22.9036C64.4683 22.9036 64.7338 22.8109 64.8917 22.6254C65.0639 22.4283 65.15 22.1037 65.15 21.6515V18.9385C65.15 18.5675 65.0639 18.2255 64.8917 17.9125C64.7338 17.5879 64.4539 17.24 64.052 16.869L58.3255 11.6344C57.7371 11.1011 57.3137 10.5678 57.0553 10.0345C56.8114 9.48956 56.6894 8.76495 56.6894 7.86063V5.16506Z"
    fill="#FF0000" />
  <path
    d="M3.89275 33.571L2.42888 36.2659V37.8887H1.51434V36.2659L0 33.571H1.07785L1.98646 35.4515L2.85646 33.571H3.89275Z"
    fill="black" />
  <path
    d="M6.41962 37.0011H4.80729L4.50442 37.8887H3.54831L5.11016 33.571H6.14347L7.69344 37.8887H6.7017L6.41962 37.0011ZM6.16426 36.2571L5.61791 34.5581L5.05374 36.2571H6.16426Z"
    fill="black" />
  <path
    d="M9.08901 37.8887H8.23683V33.571H9.56707L10.3628 36.966L11.1527 33.571H12.4681V37.8887H11.6159V34.9682C11.6159 34.8842 11.6169 34.7671 11.6189 34.6167C11.6208 34.4644 11.6218 34.3472 11.6218 34.2652L10.7934 37.8887H9.90557L9.08307 34.2652C9.08307 34.3472 9.08406 34.4644 9.08604 34.6167C9.08802 34.7671 9.08901 34.8842 9.08901 34.9682V37.8887Z"
    fill="black" />
  <path
    d="M15.8798 37.0011H14.2675L13.9646 37.8887H13.0085L14.5703 33.571H15.6036L17.1536 37.8887H16.1619L15.8798 37.0011ZM15.6244 36.2571L15.0781 34.5581L14.5139 36.2571H15.6244Z"
    fill="black" />
  <path
    d="M20.3219 37.8887V35.9612H18.6115V37.8887H17.7059V33.571H18.6115V35.2172H20.3219V33.571H21.2305V37.8887H20.3219Z"
    fill="black" />
  <path
    d="M24.6689 37.0011H23.0566L22.7537 37.8887H21.7976L23.3594 33.571H24.3928L25.9427 37.8887H24.951L24.6689 37.0011ZM24.4135 36.2571L23.8672 34.5581L23.303 36.2571H24.4135Z"
    fill="black" />
  <path
    d="M31.0143 36.0022H28.8883V37.1124H31.3112V37.8887H27.9945V33.571H31.2043V34.3355H28.8883V35.2524H31.0143V36.0022Z"
    fill="black" />
  <path d="M31.7002 35.8206H33.4046V36.6115H31.7002V35.8206Z" fill="black" />
  <path
    d="M36.0472 37.8887H34.0638V33.571H36.1898C36.7262 33.5788 37.1063 33.7321 37.33 34.0309C37.4646 34.2144 37.5319 34.4341 37.5319 34.6899C37.5319 34.9536 37.4646 35.1655 37.33 35.3256C37.2548 35.4154 37.1439 35.4974 36.9974 35.5716C37.2211 35.6517 37.3894 35.7786 37.5022 35.9524C37.617 36.1263 37.6744 36.3372 37.6744 36.5852C37.6744 36.841 37.6091 37.0704 37.4784 37.2735C37.3953 37.4083 37.2914 37.5216 37.1667 37.6133C37.0261 37.7188 36.8598 37.791 36.6678 37.8301C36.4778 37.8692 36.2709 37.8887 36.0472 37.8887ZM36.0265 35.9876H34.9367V37.1388H36.0116C36.2036 37.1388 36.3531 37.1134 36.46 37.0626C36.654 36.9689 36.751 36.7892 36.751 36.5237C36.751 36.2991 36.6569 36.1448 36.4689 36.0608C36.364 36.014 36.2165 35.9896 36.0265 35.9876ZM36.4808 35.1645C36.5995 35.0942 36.6589 34.9682 36.6589 34.7866C36.6589 34.5855 36.5797 34.4527 36.4214 34.3882C36.2848 34.3433 36.1106 34.3209 35.8988 34.3209H34.9367V35.2729H36.0116C36.2036 35.2729 36.36 35.2367 36.4808 35.1645Z"
    fill="black" />
  <path
    d="M41.0327 36.2249V33.571H41.9621V36.2249C41.9621 36.6838 41.8898 37.0412 41.7453 37.297C41.4761 37.7657 40.9624 38 40.2043 38C39.4461 38 38.9314 37.7657 38.6602 37.297C38.5157 37.0412 38.4435 36.6838 38.4435 36.2249V33.571H39.3729V36.2249C39.3729 36.5217 39.4085 36.7385 39.4798 36.8752C39.5906 37.1173 39.8321 37.2384 40.2043 37.2384C40.5744 37.2384 40.8149 37.1173 40.9258 36.8752C40.9971 36.7385 41.0327 36.5217 41.0327 36.2249Z"
    fill="black" />
  <path
    d="M44.4266 37.2648C44.6424 37.2648 44.8176 37.2413 44.9522 37.1945C45.2075 37.1046 45.3352 36.9377 45.3352 36.6936C45.3352 36.551 45.2719 36.4407 45.1452 36.3625C45.0185 36.2864 44.8195 36.219 44.5483 36.1604L44.0851 36.0579C43.6298 35.9564 43.3151 35.846 43.1409 35.7269C42.8459 35.5277 42.6985 35.2162 42.6985 34.7925C42.6985 34.4058 42.841 34.0846 43.126 33.8287C43.4111 33.5729 43.8298 33.445 44.3821 33.445C44.8433 33.445 45.2362 33.5661 45.5609 33.8082C45.8875 34.0484 46.0587 34.398 46.0746 34.8569H45.1956C45.1798 34.5972 45.065 34.4126 44.8512 34.3033C44.7087 34.231 44.5315 34.1949 44.3197 34.1949C44.0841 34.1949 43.8961 34.2418 43.7555 34.3355C43.615 34.4292 43.5447 34.5601 43.5447 34.728C43.5447 34.8823 43.614 34.9975 43.7526 35.0737C43.8416 35.1244 44.0317 35.184 44.3227 35.2524L45.0769 35.431C45.4075 35.5092 45.6569 35.6136 45.8251 35.7445C46.0864 35.9476 46.2171 36.2415 46.2171 36.6262C46.2171 37.0206 46.0637 37.3487 45.7568 37.6104C45.452 37.8701 45.0205 38 44.4622 38C43.8921 38 43.4438 37.8721 43.1171 37.6163C42.7905 37.3585 42.6272 37.005 42.6272 36.5559H43.5002C43.5279 36.7531 43.5823 36.9006 43.6635 36.9982C43.812 37.1759 44.0663 37.2648 44.4266 37.2648Z"
    fill="black" />
  <path d="M46.8228 33.571H47.7314V37.8887H46.8228V33.571Z" fill="black" />
  <path
    d="M52.126 37.8887H51.2114L49.4239 34.8218V37.8887H48.5717V33.571H49.5308L51.2738 36.5852V33.571H52.126V37.8887Z"
    fill="black" />
  <path
    d="M56.0276 36.0022H53.9016V37.1124H56.3246V37.8887H53.0079V33.571H56.2177V34.3355H53.9016V35.2524H56.0276V36.0022Z"
    fill="black" />
  <path
    d="M58.6258 37.2648C58.8415 37.2648 59.0167 37.2413 59.1513 37.1945C59.4067 37.1046 59.5344 36.9377 59.5344 36.6936C59.5344 36.551 59.471 36.4407 59.3443 36.3625C59.2177 36.2864 59.0187 36.219 58.7475 36.1604L58.2843 36.0579C57.829 35.9564 57.5143 35.846 57.3401 35.7269C57.0451 35.5277 56.8976 35.2162 56.8976 34.7925C56.8976 34.4058 57.0402 34.0846 57.3252 33.8287C57.6103 33.5729 58.0289 33.445 58.5812 33.445C59.0425 33.445 59.4354 33.5661 59.76 33.8082C60.0867 34.0484 60.2579 34.398 60.2737 34.8569H59.3948C59.379 34.5972 59.2642 34.4126 59.0504 34.3033C58.9079 34.231 58.7307 34.1949 58.5189 34.1949C58.2833 34.1949 58.0953 34.2418 57.9547 34.3355C57.8142 34.4292 57.7439 34.5601 57.7439 34.728C57.7439 34.8823 57.8132 34.9975 57.9517 35.0737C58.0408 35.1244 58.2309 35.184 58.5218 35.2524L59.276 35.431C59.6066 35.5092 59.856 35.6136 60.0243 35.7445C60.2856 35.9476 60.4163 36.2415 60.4163 36.6262C60.4163 37.0206 60.2628 37.3487 59.956 37.6104C59.6512 37.8701 59.2196 38 58.6614 38C58.0913 38 57.6429 37.8721 57.3163 37.6163C56.9897 37.3585 56.8264 37.005 56.8264 36.5559H57.6993C57.7271 36.7531 57.7815 36.9006 57.8627 36.9982C58.0111 37.1759 58.2655 37.2648 58.6258 37.2648Z"
    fill="black" />
  <path
    d="M62.6818 37.2648C62.8976 37.2648 63.0728 37.2413 63.2074 37.1945C63.4628 37.1046 63.5904 36.9377 63.5904 36.6936C63.5904 36.551 63.5271 36.4407 63.4004 36.3625C63.2737 36.2864 63.0748 36.219 62.8036 36.1604L62.3404 36.0579C61.8851 35.9564 61.5703 35.846 61.3961 35.7269C61.1012 35.5277 60.9537 35.2162 60.9537 34.7925C60.9537 34.4058 61.0962 34.0846 61.3813 33.8287C61.6663 33.5729 62.085 33.445 62.6373 33.445C63.0985 33.445 63.4915 33.5661 63.8161 33.8082C64.1427 34.0484 64.3139 34.398 64.3298 34.8569H63.4509C63.435 34.5972 63.3202 34.4126 63.1064 34.3033C62.9639 34.231 62.7867 34.1949 62.5749 34.1949C62.3394 34.1949 62.1513 34.2418 62.0108 34.3355C61.8702 34.4292 61.7999 34.5601 61.7999 34.728C61.7999 34.8823 61.8692 34.9975 62.0078 35.0737C62.0969 35.1244 62.2869 35.184 62.5779 35.2524L63.3321 35.431C63.6627 35.5092 63.9121 35.6136 64.0804 35.7445C64.3417 35.9476 64.4723 36.2415 64.4723 36.6262C64.4723 37.0206 64.3189 37.3487 64.0121 37.6104C63.7072 37.8701 63.2757 38 62.7175 38C62.1474 38 61.699 37.8721 61.3724 37.6163C61.0457 37.3585 60.8824 37.005 60.8824 36.5559H61.7554C61.7831 36.7531 61.8376 36.9006 61.9187 36.9982C62.0672 37.1759 62.3216 37.2648 62.6818 37.2648Z"
    fill="black" />
  <path
    d="M68.4304 37.2648C68.6462 37.2648 68.8213 37.2413 68.9559 37.1945C69.2113 37.1046 69.339 36.9377 69.339 36.6936C69.339 36.551 69.2756 36.4407 69.149 36.3625C69.0223 36.2864 68.8233 36.219 68.5521 36.1604L68.0889 36.0579C67.6336 35.9564 67.3189 35.846 67.1447 35.7269C66.8497 35.5277 66.7023 35.2162 66.7023 34.7925C66.7023 34.4058 66.8448 34.0846 67.1298 33.8287C67.4149 33.5729 67.8336 33.445 68.3858 33.445C68.8471 33.445 69.24 33.5661 69.5647 33.8082C69.8913 34.0484 70.0625 34.398 70.0783 34.8569H69.1994C69.1836 34.5972 69.0688 34.4126 68.855 34.3033C68.7125 34.231 68.5353 34.1949 68.3235 34.1949C68.0879 34.1949 67.8999 34.2418 67.7593 34.3355C67.6188 34.4292 67.5485 34.5601 67.5485 34.728C67.5485 34.8823 67.6178 34.9975 67.7564 35.0737C67.8454 35.1244 68.0355 35.184 68.3265 35.2524L69.0807 35.431C69.4112 35.5092 69.6607 35.6136 69.8289 35.7445C70.0902 35.9476 70.2209 36.2415 70.2209 36.6262C70.2209 37.0206 70.0675 37.3487 69.7606 37.6104C69.4558 37.8701 69.0242 38 68.466 38C67.8959 38 67.4475 37.8721 67.1209 37.6163C66.7943 37.3585 66.631 37.005 66.631 36.5559H67.504C67.5317 36.7531 67.5861 36.9006 67.6673 36.9982C67.8157 37.1759 68.0701 37.2648 68.4304 37.2648Z"
    fill="black" />
  <path
    d="M74.4313 33.571L72.9675 36.2659V37.8887H72.0529V36.2659L70.5386 33.571H71.6164L72.525 35.4515L73.395 33.571H74.4313Z"
    fill="black" />
  <path
    d="M76.5425 37.2648C76.7583 37.2648 76.9335 37.2413 77.0681 37.1945C77.3234 37.1046 77.4511 36.9377 77.4511 36.6936C77.4511 36.551 77.3878 36.4407 77.2611 36.3625C77.1344 36.2864 76.9354 36.219 76.6642 36.1604L76.201 36.0579C75.7457 35.9564 75.431 35.846 75.2568 35.7269C74.9618 35.5277 74.8144 35.2162 74.8144 34.7925C74.8144 34.4058 74.9569 34.0846 75.242 33.8287C75.527 33.5729 75.9457 33.445 76.498 33.445C76.9592 33.445 77.3521 33.5661 77.6768 33.8082C78.0034 34.0484 78.1746 34.398 78.1905 34.8569H77.3115C77.2957 34.5972 77.1809 34.4126 76.9671 34.3033C76.8246 34.231 76.6474 34.1949 76.4356 34.1949C76.2 34.1949 76.012 34.2418 75.8714 34.3355C75.7309 34.4292 75.6606 34.5601 75.6606 34.728C75.6606 34.8823 75.7299 34.9975 75.8685 35.0737C75.9576 35.1244 76.1476 35.184 76.4386 35.2524L77.1928 35.431C77.5234 35.5092 77.7728 35.6136 77.941 35.7445C78.2023 35.9476 78.333 36.2415 78.333 36.6262C78.333 37.0206 78.1796 37.3487 77.8727 37.6104C77.5679 37.8701 77.1364 38 76.5781 38C76.008 38 75.5597 37.8721 75.233 37.6163C74.9064 37.3585 74.7431 37.005 74.7431 36.5559H75.6161C75.6438 36.7531 75.6982 36.9006 75.7794 36.9982C75.9279 37.1759 76.1822 37.2648 76.5425 37.2648Z"
    fill="black" />
  <path d="M82.1901 33.571V34.3355H80.8806V37.8887H79.9602V34.3355H78.6448V33.571H82.1901Z"
    fill="black" />
  <path
    d="M85.774 36.0022H83.648V37.1124H86.071V37.8887H82.7543V33.571H85.9641V34.3355H83.648V35.2524H85.774V36.0022Z"
    fill="black" />
  <path
    d="M87.6209 37.8887H86.7688V33.571H88.099L88.8948 36.966L89.6846 33.571H91V37.8887H90.1478V34.9682C90.1478 34.8842 90.1488 34.7671 90.1508 34.6167C90.1528 34.4644 90.1537 34.3472 90.1537 34.2652L89.3253 37.8887H88.4375L87.615 34.2652C87.615 34.3472 87.616 34.4644 87.618 34.6167C87.6199 34.7671 87.6209 34.8842 87.6209 34.9682V37.8887Z"
    fill="black" />
</svg>