<svg width="20" height="20" viewBox="0 0 20 20" fill="none" xmlns="http://www.w3.org/2000/svg">
  <path
    d="M18.75 16.2487H17.5V9.02602C17.5 8.85301 17.4641 8.68189 17.3946 8.52348C17.3251 8.36506 17.2234 8.2228 17.0961 8.1057L10.8461 2.20883C10.843 2.20616 10.8402 2.20329 10.8375 2.20023C10.6074 1.99096 10.3075 1.875 9.99648 1.875C9.68545 1.875 9.38558 1.99096 9.15547 2.20023L9.14688 2.20883L2.90391 8.1057C2.77656 8.2228 2.67491 8.36506 2.60538 8.52348C2.53586 8.68189 2.49997 8.85301 2.5 9.02602V16.2487H1.25C1.08424 16.2487 0.925268 16.3145 0.808058 16.4317C0.690848 16.5489 0.625 16.7079 0.625 16.8737C0.625 17.0394 0.690848 17.1984 0.808058 17.3156C0.925268 17.4328 1.08424 17.4987 1.25 17.4987H18.75C18.9158 17.4987 19.0747 17.4328 19.1919 17.3156C19.3092 17.1984 19.375 17.0394 19.375 16.8737C19.375 16.7079 19.3092 16.5489 19.1919 16.4317C19.0747 16.3145 18.9158 16.2487 18.75 16.2487ZM11.875 16.2487H8.125V12.4987C8.125 12.3329 8.19085 12.1739 8.30806 12.0567C8.42527 11.9395 8.58424 11.8737 8.75 11.8737H11.25C11.4158 11.8737 11.5747 11.9395 11.6919 12.0567C11.8092 12.1739 11.875 12.3329 11.875 12.4987V16.2487Z"
    fill="#E10000" />
</svg>
  