<svg width="18" height="18" viewBox="0 0 18 18" fill="none" xmlns="http://www.w3.org/2000/svg">
  <path
    d="M16.475 4.16646L9.6 0.404738C9.41631 0.30324 9.20987 0.25 9 0.25C8.79013 0.25 8.58369 0.30324 8.4 0.404738L1.525 4.16802C1.32866 4.27544 1.16477 4.43361 1.05043 4.62601C0.936094 4.8184 0.875508 5.03796 0.875 5.26177V12.7336C0.875508 12.9574 0.936094 13.177 1.05043 13.3694C1.16477 13.5618 1.32866 13.72 1.525 13.8274L8.4 17.5907C8.58369 17.6922 8.79013 17.7454 9 17.7454C9.20987 17.7454 9.41631 17.6922 9.6 17.5907L16.475 13.8274C16.6713 13.72 16.8352 13.5618 16.9496 13.3694C17.0639 13.177 17.1245 12.9574 17.125 12.7336V5.26255C17.1249 5.03835 17.0645 4.8183 16.9502 4.62545C16.8358 4.43261 16.6717 4.27407 16.475 4.16646ZM9 1.49849L15.2766 4.93599L12.9508 6.20943L6.67344 2.77193L9 1.49849ZM9 8.37349L2.72344 4.93599L5.37187 3.48599L11.6484 6.92349L9 8.37349ZM2.125 6.02974L8.375 9.45005V16.1524L2.125 12.7344V6.02974ZM15.875 12.7313L9.625 16.1524V9.45318L12.125 8.08521V10.8735C12.125 11.0392 12.1908 11.1982 12.3081 11.3154C12.4253 11.4326 12.5842 11.4985 12.75 11.4985C12.9158 11.4985 13.0747 11.4326 13.1919 11.3154C13.3092 11.1982 13.375 11.0392 13.375 10.8735V7.40083L15.875 6.02974V12.7305V12.7313Z"
    fill="#5D5D5D" />
</svg>
  