<svg width="19" height="18" viewBox="0 0 19 18" fill="none" xmlns="http://www.w3.org/2000/svg">
  <path
    d="M18.2011 4.47585C18.139 4.28192 18.0206 4.11083 17.8611 3.98426C17.7015 3.85768 17.508 3.78134 17.305 3.76491L14.3972 3.51882L13.2628 0.874285C13.1828 0.688889 13.0502 0.530985 12.8815 0.420049C12.7127 0.309114 12.5152 0.25 12.3132 0.25C12.1113 0.25 11.9138 0.309114 11.745 0.420049C11.5763 0.530985 11.4437 0.688889 11.3636 0.874285L10.2293 3.5196L7.32066 3.76491C7.11869 3.78113 6.92605 3.8568 6.76704 3.98238C6.60803 4.10795 6.48977 4.27781 6.42718 4.47052C6.36459 4.66322 6.36047 4.87015 6.41534 5.06519C6.47021 5.26024 6.58162 5.43467 6.7355 5.56647L8.9355 7.44147L8.27691 10.2329C8.23061 10.4285 8.24296 10.6335 8.31243 10.8222C8.3819 11.0109 8.50541 11.1749 8.66753 11.2938C8.83158 11.4143 9.02749 11.4837 9.23078 11.4934C9.43406 11.5032 9.63571 11.4528 9.8105 11.3485L12.3105 9.86413L14.8105 11.3485C14.9853 11.4528 15.1869 11.5032 15.3902 11.4934C15.5935 11.4837 15.7894 11.4143 15.9535 11.2938C16.1157 11.175 16.2392 11.0109 16.3087 10.8222C16.3782 10.6335 16.3905 10.4285 16.3441 10.2329L15.6855 7.44147L17.8847 5.56647C18.0395 5.43642 18.1522 5.26336 18.2085 5.0692C18.2649 4.87505 18.2623 4.66854 18.2011 4.47585ZM14.7746 6.58522C14.6306 6.70719 14.5233 6.86668 14.4645 7.04597C14.4058 7.22527 14.3979 7.41734 14.4418 7.60085L15.0128 10.0227L12.8425 8.73288C12.6824 8.63738 12.4993 8.58696 12.3128 8.58696C12.1264 8.58696 11.9433 8.63738 11.7832 8.73288L9.61285 10.0149L10.1839 7.59303C10.2284 7.40961 10.2209 7.21742 10.1623 7.03803C10.1036 6.85863 9.99616 6.69913 9.85191 6.57741L7.9566 4.96647L10.4636 4.75397C10.6497 4.73836 10.828 4.67237 10.9794 4.56309C11.1308 4.4538 11.2496 4.30535 11.323 4.13366L12.3128 1.83054L13.3003 4.13366C13.3739 4.30525 13.4927 4.45361 13.6441 4.56288C13.7955 4.67214 13.9737 4.73819 14.1597 4.75397L16.6668 4.96647L14.7746 6.58522ZM6.19254 8.81647L1.81754 13.1915C1.70026 13.3087 1.5412 13.3746 1.37535 13.3746C1.2095 13.3746 1.05044 13.3087 0.93316 13.1915C0.815885 13.0742 0.75 12.9151 0.75 12.7493C0.75 12.5834 0.815885 12.4244 0.93316 12.3071L5.30816 7.9321C5.42544 7.81482 5.5845 7.74894 5.75035 7.74894C5.9162 7.74894 6.07526 7.81482 6.19254 7.9321C6.30981 8.04937 6.37569 8.20843 6.3757 8.37428C6.3757 8.54014 6.30981 8.6992 6.19254 8.81647ZM7.44254 13.1915L3.06753 17.5665C3.00947 17.6245 2.94053 17.6706 2.86466 17.702C2.78879 17.7335 2.70747 17.7496 2.62535 17.7496C2.54323 17.7496 2.46191 17.7335 2.38604 17.702C2.31017 17.6706 2.24123 17.6245 2.18316 17.5665C2.12509 17.5084 2.07903 17.4395 2.0476 17.3636C2.01618 17.2877 2 17.2064 2 17.1243C2 17.0422 2.01618 16.9608 2.0476 16.885C2.07903 16.8091 2.12509 16.7402 2.18316 16.6821L6.55816 12.3071C6.67544 12.1898 6.8345 12.1239 7.00035 12.1239C7.1662 12.1239 7.32526 12.1898 7.44254 12.3071C7.55981 12.4244 7.62569 12.5834 7.6257 12.7493C7.6257 12.9151 7.55981 13.0742 7.44254 13.1915ZM13.0675 12.3071C13.1256 12.3651 13.1717 12.4341 13.2032 12.5099C13.2347 12.5858 13.2508 12.6671 13.2508 12.7493C13.2508 12.8314 13.2347 12.9127 13.2032 12.9886C13.1717 13.0645 13.1256 13.1334 13.0675 13.1915L8.69254 17.5665C8.63447 17.6245 8.56553 17.6706 8.48966 17.702C8.41379 17.7335 8.33247 17.7496 8.25035 17.7496C8.16823 17.7496 8.08691 17.7335 8.01104 17.702C7.93517 17.6706 7.86623 17.6245 7.80816 17.5665C7.75009 17.5084 7.70403 17.4395 7.6726 17.3636C7.64117 17.2877 7.625 17.2064 7.625 17.1243C7.625 17.0422 7.64117 16.9608 7.6726 16.885C7.70403 16.8091 7.75009 16.7402 7.80816 16.6821L12.1832 12.3071C12.2412 12.249 12.3101 12.2029 12.386 12.1714C12.4619 12.14 12.5432 12.1238 12.6253 12.1238C12.7075 12.1238 12.7888 12.14 12.8647 12.1714C12.9406 12.2029 13.0095 12.249 13.0675 12.3071Z"
    fill="#5D5D5D" />
</svg>
  