<svg width="18" height="18" viewBox="0 0 18 18" fill="none" xmlns="http://www.w3.org/2000/svg">
  <path
    d="M6.81261 8.09609C6.90765 8.04123 6.98656 7.96231 7.04142 7.86727C7.09627 7.77223 7.12514 7.66442 7.12511 7.55469V1.92969C7.12456 1.83004 7.10018 1.73198 7.05402 1.64367C7.00786 1.55536 6.94126 1.47936 6.85976 1.42202C6.77826 1.36469 6.68424 1.32766 6.58553 1.31405C6.48681 1.30043 6.38628 1.31062 6.2923 1.34375C4.46807 1.98939 2.93396 3.26457 1.96575 4.94005C0.997549 6.61554 0.658754 8.58145 1.01027 10.4844C1.02849 10.5828 1.07008 10.6754 1.13153 10.7544C1.19298 10.8333 1.27249 10.8964 1.3634 10.9383C1.44531 10.9766 1.53468 10.9963 1.62511 10.9961C1.73481 10.9961 1.84259 10.9673 1.93761 10.9125L6.81261 8.09609ZM5.87511 2.87656V7.19375L2.13449 9.35234C2.12511 9.23438 2.12511 9.11563 2.12511 9C2.12622 7.73309 2.4769 6.49106 3.13855 5.41066C3.80019 4.33025 4.74713 3.45337 5.87511 2.87656ZM16.0579 4.97812C16.0509 4.96406 16.0439 4.94922 16.0353 4.93516C16.0267 4.92109 16.0196 4.90938 16.0111 4.89688C15.2947 3.67328 14.2707 2.65834 13.0409 1.95282C11.811 1.24729 10.418 0.875723 9.00011 0.875C8.83435 0.875 8.67538 0.940848 8.55817 1.05806C8.44096 1.17527 8.37511 1.33424 8.37511 1.5V8.67422L2.21808 12.2602C2.14664 12.3016 2.0841 12.3567 2.0341 12.4225C1.9841 12.4882 1.94762 12.5632 1.92677 12.6431C1.90592 12.723 1.90112 12.8062 1.91263 12.888C1.92415 12.9698 1.95176 13.0485 1.99386 13.1195C2.8972 14.6578 4.28168 15.856 5.93365 16.5293C7.58561 17.2025 9.41324 17.3134 11.1345 16.8448C12.8557 16.3762 14.3749 15.3541 15.4576 13.9364C16.5403 12.5186 17.1262 10.7839 17.1251 9C17.1269 7.58916 16.759 6.20247 16.0579 4.97812ZM9.62511 2.15313C10.6164 2.24437 11.576 2.54965 12.4378 3.04791C13.2995 3.54617 14.0429 4.22552 14.6165 5.03906L9.62511 7.94609V2.15313ZM9.00011 15.875C7.90903 15.8722 6.83412 15.6111 5.86336 15.113C4.89259 14.6149 4.05357 13.894 3.41496 13.0094L9.30558 9.57891L9.32277 9.56797L15.2423 6.12031C15.7255 7.16777 15.9373 8.31996 15.8583 9.47078C15.7793 10.6216 15.4121 11.734 14.7903 12.7057C14.1685 13.6773 13.3123 14.4768 12.3005 15.0307C11.2886 15.5845 10.1536 15.8749 9.00011 15.875Z"
    fill="#5D5D5D" />
</svg>
  