<svg width="20" height="14" viewBox="0 0 20 14" fill="none" xmlns="http://www.w3.org/2000/svg">
  <path
    d="M14.375 3.99766V3.5625C14.375 1.60312 11.4195 0.125 7.5 0.125C3.58047 0.125 0.625 1.60312 0.625 3.5625V6.6875C0.625 8.31953 2.67578 9.61641 5.625 10.0047V10.4375C5.625 12.3969 8.58047 13.875 12.5 13.875C16.4195 13.875 19.375 12.3969 19.375 10.4375V7.3125C19.375 5.69531 17.3891 4.39687 14.375 3.99766ZM18.125 7.3125C18.125 8.34531 15.7195 9.5 12.5 9.5C12.2086 9.5 11.9195 9.48984 11.6344 9.47109C13.3195 8.85703 14.375 7.85938 14.375 6.6875V5.26094C16.7086 5.60859 18.125 6.55234 18.125 7.3125ZM5.625 8.73828V6.87969C6.2467 6.96069 6.87304 7.00089 7.5 7C8.12696 7.00089 8.7533 6.96069 9.375 6.87969V8.73828C8.75422 8.82999 8.12751 8.87569 7.5 8.875C6.87249 8.87569 6.24578 8.82999 5.625 8.73828ZM13.125 5.58828V6.6875C13.125 7.34297 12.1555 8.04687 10.625 8.47422V6.64844C11.6336 6.40391 12.4875 6.03984 13.125 5.58828ZM7.5 1.375C10.7195 1.375 13.125 2.52969 13.125 3.5625C13.125 4.59531 10.7195 5.75 7.5 5.75C4.28047 5.75 1.875 4.59531 1.875 3.5625C1.875 2.52969 4.28047 1.375 7.5 1.375ZM1.875 6.6875V5.58828C2.5125 6.03984 3.36641 6.40391 4.375 6.64844V8.47422C2.84453 8.04687 1.875 7.34297 1.875 6.6875ZM6.875 10.4375V10.1117C7.08047 10.1195 7.28828 10.125 7.5 10.125C7.80312 10.125 8.09922 10.1148 8.38984 10.0977C8.7127 10.2132 9.04157 10.3113 9.375 10.3914V12.2242C7.84453 11.7969 6.875 11.093 6.875 10.4375ZM10.625 12.4883V10.625C11.2465 10.7085 11.8729 10.7503 12.5 10.75C13.127 10.7509 13.7533 10.7107 14.375 10.6297V12.4883C13.1316 12.6706 11.8684 12.6706 10.625 12.4883ZM15.625 12.2242V10.3984C16.6336 10.1539 17.4875 9.78984 18.125 9.33828V10.4375C18.125 11.093 17.1555 11.7969 15.625 12.2242Z"
    fill="#5D5D5D" />
</svg>
  