<svg width="18" height="18" viewBox="0 0 18 18" fill="none" xmlns="http://www.w3.org/2000/svg">
  <path
    d="M9.00039 5.25015C8.25871 5.25015 7.53369 5.47008 6.917 5.88214C6.30032 6.29419 5.81967 6.87986 5.53584 7.56509C5.25202 8.25031 5.17775 9.00431 5.32245 9.73174C5.46714 10.4592 5.8243 11.1274 6.34874 11.6518C6.87319 12.1762 7.54138 12.5334 8.2688 12.6781C8.99623 12.8228 9.75023 12.7485 10.4355 12.4647C11.1207 12.1809 11.7063 11.7002 12.1184 11.0835C12.5305 10.4669 12.7504 9.74183 12.7504 9.00015C12.7494 8.0059 12.3539 7.05268 11.6509 6.34964C10.9479 5.6466 9.99464 5.25118 9.00039 5.25015ZM9.00039 11.5001C8.50594 11.5001 8.02259 11.3535 7.61147 11.0788C7.20034 10.8041 6.87991 10.4137 6.69069 9.95686C6.50147 9.50004 6.45197 8.99738 6.54843 8.51242C6.64489 8.02747 6.88299 7.58201 7.23263 7.23238C7.58226 6.88275 8.02771 6.64465 8.51267 6.54819C8.99762 6.45172 9.50029 6.50123 9.9571 6.69045C10.4139 6.87967 10.8044 7.2001 11.0791 7.61122C11.3538 8.02235 11.5004 8.5057 11.5004 9.00015C11.5004 9.66319 11.237 10.2991 10.7682 10.7679C10.2993 11.2368 9.66343 11.5001 9.00039 11.5001ZM17.5895 7.37593C17.572 7.28792 17.5359 7.20469 17.4835 7.13189C17.431 7.05909 17.3635 6.99844 17.2855 6.95405L14.9551 5.62593L14.9457 2.99937C14.9454 2.90891 14.9255 2.81959 14.8873 2.73758C14.8492 2.65557 14.7936 2.58282 14.7246 2.52437C13.8792 1.80929 12.9057 1.26129 11.8559 0.909523C11.7732 0.881538 11.6856 0.871182 11.5986 0.879121C11.5117 0.88706 11.4274 0.913118 11.3512 0.955617L9.00039 2.26968L6.64727 0.953273C6.57098 0.910535 6.48658 0.88428 6.39951 0.876205C6.31244 0.868131 6.22464 0.878417 6.1418 0.906398C5.0927 1.26074 4.12031 1.81082 3.27617 2.52749C3.20724 2.58586 3.15178 2.65848 3.11361 2.74035C3.07545 2.82222 3.05548 2.91138 3.05508 3.00171L3.04336 5.63062L0.712893 6.95874C0.634925 7.00313 0.567428 7.06378 0.514988 7.13658C0.462548 7.20937 0.426395 7.29261 0.408987 7.38062C0.195702 8.4524 0.195702 9.55571 0.408987 10.6275C0.426395 10.7155 0.462548 10.7987 0.514988 10.8715C0.567428 10.9443 0.634925 11.005 0.712893 11.0494L3.04336 12.3775L3.05274 15.0041C3.05302 15.0945 3.07294 15.1838 3.11111 15.2658C3.14928 15.3479 3.2048 15.4206 3.27383 15.4791C4.1192 16.1941 5.0927 16.7421 6.14258 17.0939C6.22526 17.1219 6.31288 17.1322 6.39981 17.1243C6.48673 17.1164 6.57103 17.0903 6.64727 17.0478L9.00039 15.7306L11.3535 17.047C11.4466 17.0989 11.5516 17.1258 11.6582 17.1251C11.7265 17.1251 11.7943 17.114 11.859 17.0923C12.908 16.7385 13.8804 16.1889 14.7246 15.4728C14.7935 15.4144 14.849 15.3418 14.8872 15.2599C14.9253 15.1781 14.9453 15.0889 14.9457 14.9986L14.9574 12.3697L17.2879 11.0416C17.3659 10.9972 17.4334 10.9365 17.4858 10.8637C17.5382 10.7909 17.5744 10.7077 17.5918 10.6197C17.8039 9.54875 17.8031 8.44655 17.5895 7.37593ZM16.4176 10.1033L14.1855 11.3728C14.0878 11.4284 14.0068 11.5094 13.9512 11.6072C13.9059 11.6853 13.8582 11.7681 13.8098 11.8462C13.7478 11.9448 13.7147 12.0587 13.7145 12.1751L13.7027 14.6947C13.1028 15.1658 12.4344 15.5426 11.7207 15.8119L9.46914 14.5572C9.37567 14.5055 9.2705 14.4786 9.16367 14.4791H9.14883C9.0543 14.4791 8.95899 14.4791 8.86446 14.4791C8.75265 14.4763 8.64211 14.5032 8.54414 14.5572L6.29102 15.815C5.57579 15.5477 4.90557 15.1729 4.30352 14.7033L4.29492 12.1876C4.29454 12.071 4.26152 11.9568 4.19961 11.858C4.15117 11.7798 4.10352 11.7017 4.05899 11.6189C4.00377 11.5196 3.92281 11.437 3.82461 11.3798L1.59024 10.1072C1.47461 9.37578 1.47461 8.63076 1.59024 7.89937L3.81836 6.62749C3.91616 6.57188 3.99713 6.49091 4.05274 6.39312C4.09805 6.31499 4.14571 6.23218 4.19414 6.15405C4.25615 6.05553 4.28917 5.94156 4.28945 5.82515L4.30117 3.30562C4.90112 2.83448 5.5695 2.45774 6.28321 2.18843L8.53164 3.44312C8.6295 3.49736 8.74012 3.52434 8.85196 3.52124C8.94649 3.52124 9.0418 3.52124 9.13633 3.52124C9.24814 3.52404 9.35868 3.49707 9.45664 3.44312L11.7098 2.1853C12.425 2.45255 13.0952 2.82744 13.6973 3.29702L13.7059 5.81265C13.7062 5.92928 13.7393 6.04349 13.8012 6.14234C13.8496 6.22046 13.8973 6.29859 13.9418 6.3814C13.997 6.48071 14.078 6.56329 14.1762 6.62046L16.4105 7.89312C16.5277 8.62508 16.529 9.37091 16.4145 10.1033H16.4176Z"
    fill="#5D5D5D" />
</svg>
  