<svg width="18" height="18" viewBox="0 0 18 18" fill="none" xmlns="http://www.w3.org/2000/svg">
  <path
    d="M16.7167 4.39174C16.6788 4.29803 16.6187 4.21492 16.5416 4.14953C16.4645 4.08414 16.3727 4.03843 16.2741 4.0163C16.1755 3.99418 16.0729 3.99631 15.9753 4.02251C15.8777 4.04871 15.7879 4.0982 15.7136 4.16674L12.5651 7.07221L11.219 6.78314L10.93 5.43705L13.8354 2.28861C13.904 2.21431 13.9535 2.12449 13.9797 2.02686C14.0059 1.92923 14.008 1.82671 13.9859 1.72807C13.9638 1.62944 13.918 1.53765 13.8526 1.46056C13.7873 1.38347 13.7041 1.3234 13.6104 1.28549C12.7565 0.940044 11.8308 0.809615 10.9146 0.905658C9.99844 1.0017 9.11989 1.32128 8.35614 1.83631C7.59238 2.35134 6.96681 3.04606 6.53438 3.85943C6.10194 4.6728 5.87589 5.57993 5.87607 6.50111C5.87506 7.27899 6.03464 8.04869 6.34482 8.76205L1.64091 12.8292C1.62919 12.8386 1.61825 12.8495 1.60732 12.8597C1.13842 13.3286 0.875 13.9646 0.875 14.6277C0.875 14.956 0.939672 15.2811 1.06532 15.5845C1.19097 15.8878 1.37514 16.1635 1.60732 16.3956C1.83949 16.6278 2.11512 16.812 2.41847 16.9376C2.72182 17.0633 3.04694 17.128 3.37529 17.128C4.0384 17.128 4.67436 16.8645 5.14325 16.3956C5.15341 16.3855 5.16435 16.3738 5.17372 16.3628L9.24013 11.6574C10.0967 12.0334 11.0336 12.1898 11.9658 12.1125C12.8981 12.0352 13.7964 11.7266 14.5794 11.2147C15.3623 10.7027 16.0053 10.0036 16.4499 9.18057C16.8946 8.35754 17.127 7.43659 17.1261 6.50111C17.1273 5.77813 16.9883 5.06178 16.7167 4.39174ZM11.5011 10.8761C10.7613 10.8751 10.0338 10.687 9.38622 10.3292C9.26077 10.2599 9.11531 10.2358 8.97421 10.261C8.83312 10.2862 8.70496 10.3591 8.61122 10.4675L4.24404 15.5253C4.00771 15.7499 3.69302 15.8732 3.36707 15.869C3.04112 15.8648 2.72969 15.7335 2.49919 15.503C2.26869 15.2725 2.13735 14.9611 2.13317 14.6351C2.129 14.3092 2.25232 13.9945 2.47685 13.7581L7.53075 9.39174C7.63936 9.29795 7.71238 9.16965 7.73756 9.02839C7.76274 8.88712 7.73854 8.74149 7.66904 8.61596C7.27062 7.89536 7.08365 7.07696 7.12961 6.25485C7.17557 5.43273 7.4526 4.64027 7.92885 3.96857C8.4051 3.29688 9.06123 2.77322 9.82182 2.45779C10.5824 2.14236 11.4166 2.04798 12.2284 2.18549L9.79091 4.82689C9.72309 4.90047 9.67393 4.98925 9.64755 5.08577C9.62118 5.1823 9.61836 5.28374 9.63935 5.38158L10.0815 7.43861C10.1068 7.55626 10.1655 7.66411 10.2506 7.7492C10.3357 7.83429 10.4436 7.89301 10.5612 7.9183L12.6198 8.36049C12.7177 8.38147 12.8191 8.37866 12.9156 8.35228C13.0122 8.32591 13.1009 8.27675 13.1745 8.20892L15.8159 5.77142C15.9212 6.39877 15.8886 7.04153 15.7203 7.655C15.552 8.26846 15.2521 8.83791 14.8415 9.32373C14.4308 9.80955 13.9193 10.2001 13.3424 10.4682C12.7655 10.7363 12.1372 10.8755 11.5011 10.8761Z"
    fill="#5D5D5D" />
</svg>
  